HIERARCHY
ROOT Hips
{
	OFFSET 0.000000 0.938569 0.000000
	CHANNELS 6 Xposition Yposition Zposition Zrotation Yrotation Xrotation 
	JOINT LeftUpLeg
	{
		OFFSET 0.053367 -0.122087 0.014267
		CHANNELS 3 Zrotation Yrotation Xrotation
		JOINT LeftLeg
		{
			OFFSET 0.016213 -0.365522 0.081311
			CHANNELS 3 Zrotation Yrotation Xrotation
			JOINT LeftFoot
			{
				OFFSET -0.025136 -0.410005 -0.146673
				CHANNELS 3 Zrotation Yrotation Xrotation
				End Site #name: LeftToeBase
				{
					OFFSET 0.027111 -0.033578 0.136312
				}
			}
		}
	}
	JOINT rightUpLeg
	{
		OFFSET -0.064680 -0.125391 -0.021063
		CHANNELS 3 Zrotation Yrotation Xrotation
		JOINT RightLeg
		{
			OFFSET -0.099945 -0.343287 0.069136
			CHANNELS 3 Zrotation Yrotation Xrotation
			JOINT RightFoot
			{
				OFFSET 0.038341 -0.391261 -0.186219
				CHANNELS 3 Zrotation Yrotation Xrotation
				End Site #name: RightToeBase
				{
					OFFSET -0.063473 -0.055539 0.119840
				}
			}
		}
	}
	JOINT Spine
	{
		OFFSET 0.019726 0.081755 -0.031349
		CHANNELS 3 Zrotation Yrotation Xrotation
		JOINT Spine1
		{
			OFFSET -0.008768 0.159287 0.019172
			CHANNELS 3 Zrotation Yrotation Xrotation
			JOINT Spine2
			{
				OFFSET -0.005533 0.058687 0.029150
				CHANNELS 3 Zrotation Yrotation Xrotation
				JOINT Neck
				{
					OFFSET 0.004231 0.224909 -0.023856
					CHANNELS 3 Zrotation Yrotation Xrotation
					End Site #name: Head
					{
						OFFSET -0.013387 0.061361 0.043872
					}
				}
				JOINT LeftShoulder
				{
					OFFSET 0.073274 0.132606 -0.019193
					CHANNELS 3 Zrotation Yrotation Xrotation
					JOINT LeftArm
					{
						OFFSET 0.126443 -0.005637 0.031467
						CHANNELS 3 Zrotation Yrotation Xrotation
						JOINT LeftForeArm
						{
							OFFSET 0.067635 -0.262723 0.067898
							CHANNELS 3 Zrotation Yrotation Xrotation
							End Site #name: LeftHand
							{
								OFFSET -0.029297 -0.153529 0.209082
							}
						}
					}
				}
				JOINT RightShoulder
				{
					OFFSET -0.070954 0.142461 -0.034048
					CHANNELS 3 Zrotation Yrotation Xrotation
					JOINT RightArm
					{
						OFFSET -0.120642 -0.012286 0.005435
						CHANNELS 3 Zrotation Yrotation Xrotation
						JOINT RightForeArm
						{
							OFFSET -0.046387 -0.275655 0.062240
							CHANNELS 3 Zrotation Yrotation Xrotation
							End Site #name: RightHand
							{
								OFFSET 0.006080 -0.085081 0.251848
							}
						}
					}
				}
			}
		}
	}
}
MOTION
Frames: 20
Frame Time: 0.041667
0.000000 0.938569 0.000000 0.000000 0.000000 0.000000 0.000000 0.000000 0.000000 0.000000 0.000000 0.000000 0.000000 0.000000 0.000000 0.000000 0.000000 0.000000 0.000000 0.000000 0.000000 0.000000 0.000000 0.000000 0.000000 0.000000 0.000000 0.000000 0.000000 0.000000 0.000000 0.000000 0.000000 0.000000 0.000000 0.000000 0.000000 0.000000 0.000000 0.000000 0.000000 0.000000 -0.000000 -0.000000 0.000000 0.000000 0.000000 0.000000 0.000000 -0.000000 0.000000 0.000000 0.000000 -0.000000 
0.000694 0.950093 0.005254 -0.108670 -0.211610 0.960157 0.058696 0.088414 1.725486 0.054248 0.255982 -4.513546 -0.279594 0.195934 1.657078 0.740333 -0.301597 1.515142 -1.498242 0.136319 -5.164955 0.833337 0.332373 1.269907 -0.285875 -0.039953 -1.293077 0.629503 -0.317444 -0.056440 0.075146 -0.102938 0.433521 0.058852 0.373502 1.889171 1.424459 0.563213 -0.322979 4.992689 1.695668 2.017238 0.243087 -0.235700 2.979399 -0.306347 -2.529873 0.250950 -4.133905 -1.501138 4.459111 -0.906288 -1.654265 8.414577 
0.001231 0.956221 0.010515 -0.129759 -0.337565 2.215016 0.239261 0.161156 2.572548 -0.334455 0.588177 -8.272565 -0.494102 0.261864 2.824287 1.115365 -0.536443 2.532041 -2.384410 0.012219 -9.425692 1.538269 0.711942 2.238256 -0.464798 -0.050801 -1.807324 0.985596 -0.550045 -0.731676 0.322669 -0.122990 1.234263 -0.445416 0.962163 2.818463 3.327521 1.462326 -0.723891 9.962034 3.198115 4.227148 -0.729834 -1.891825 5.554437 -1.347461 -4.922286 0.500339 -8.295257 -2.706163 9.526162 -3.161860 -5.062282 18.565584 
0.001810 0.957932 0.014464 -0.059365 -0.435053 3.486078 0.279849 0.147843 2.056356 -0.722374 0.759969 -9.513582 -0.447084 0.509804 2.928026 1.222310 -0.455845 2.327229 -2.809698 -0.081463 -11.572983 1.861152 0.745144 2.799606 -0.442234 -0.005393 -0.995184 1.074175 -0.665350 -1.614115 0.592640 -0.095461 1.920337 -0.771180 1.285079 3.141352 5.055250 2.963277 -1.004334 13.811048 4.389297 7.438001 -2.480062 -4.205616 7.097329 -2.937109 -7.489325 0.828267 -11.368481 -3.486703 15.594616 -6.196683 -8.569932 27.682745 
0.002288 0.955669 0.016229 0.053811 -0.550646 4.584111 0.219061 0.056720 0.188847 -1.154221 0.807801 -8.103492 -0.041098 1.285005 1.904089 0.878615 0.001908 0.585811 -2.399390 -0.126040 -10.676849 1.744416 0.481745 2.819086 -0.204317 0.064659 0.704080 0.941984 -0.682560 -2.589482 0.773277 -0.080676 2.561610 -0.920189 1.302133 2.739153 6.494341 4.594532 -1.166764 15.805322 5.157468 11.500245 -4.430367 -6.485472 6.712035 -4.770595 -9.823882 1.207786 -12.786357 -3.882058 21.516148 -8.103372 -10.363222 32.431456 
0.002605 0.949194 0.015873 0.244255 -0.673663 5.574268 0.170107 -0.095921 -3.106028 -1.807675 0.826509 -4.203044 0.673042 2.734152 0.021758 -0.137427 0.750292 -2.671495 -0.930204 -0.282171 -6.897439 1.222491 0.016037 2.272235 0.168428 0.146608 3.105264 0.680426 -0.657881 -3.745458 0.751909 -0.105237 3.409120 -1.004226 1.037414 1.359930 7.477734 6.322464 -1.187611 16.315346 5.674473 16.119256 -6.290692 -8.634896 5.032969 -6.593319 -11.931748 1.628980 -12.748319 -4.171747 27.618904 -9.576267 -11.674777 35.446833 
0.002577 0.936133 0.013782 0.549309 -0.773091 6.595539 0.240900 -0.309087 -8.448683 -2.884916 0.936165 2.849183 1.681912 5.205371 -2.560681 -2.146759 1.706133 -7.787323 1.922975 -0.931213 -0.225592 0.297337 -0.727144 1.207447 0.679068 0.227446 6.258985 0.305683 -0.607127 -5.115589 0.455548 -0.175903 4.446691 -0.838782 0.485421 -0.503612 7.716815 7.865915 -1.062136 15.435678 6.111055 21.183120 -7.502197 -10.095671 3.445189 -8.306143 -13.840153 2.077790 -11.416067 -4.636421 34.884067 -10.929047 -12.779866 38.053417 
0.001808 0.911923 0.011300 0.928644 -0.858385 7.608470 0.656701 -0.475927 -15.633494 -4.641497 1.445588 12.981777 2.759007 8.201273 -5.738822 -5.368838 2.605160 -14.878518 6.288919 -2.687221 9.198711 -1.013937 -1.972691 -0.177818 1.356528 0.285217 10.284762 -0.139573 -0.573191 -6.899333 -0.128586 -0.330088 5.396369 -0.374107 -0.248655 -2.346238 6.846500 8.104742 -0.876122 12.523083 6.536540 25.725582 -6.128349 -8.388019 3.608286 -9.037435 -15.145179 2.380347 -8.146191 -5.490727 41.237494 -12.422108 -14.056084 40.256381 
-0.000325 0.876352 0.011018 1.289374 -0.907094 8.302592 1.209669 -0.534337 -22.766802 -6.303487 2.269861 23.999699 3.626432 10.787606 -9.230885 -9.177567 2.957617 -22.297132 11.251693 -5.798227 19.579674 -2.703823 -3.285159 -2.326741 2.227450 0.254883 14.508417 -0.598192 -0.560987 -8.820666 -0.730872 -0.490942 5.857764 -0.314212 -0.758637 -4.544185 4.554567 6.325481 -0.609451 8.229782 6.661373 26.847109 -1.697622 -3.063940 5.449644 -7.766285 -14.392219 2.131633 -3.073464 -6.468610 43.010724 -14.852445 -16.416918 42.244717 
-0.003774 0.843172 0.015069 1.425367 -0.891476 8.360858 1.450443 -0.600897 -27.569292 -6.836277 2.664319 32.625448 4.189215 12.764322 -12.009447 -11.819244 2.883026 -27.284437 14.614576 -8.740075 27.579310 -4.268407 -3.813494 -5.062777 3.069781 0.133841 17.597319 -0.784958 -0.581629 -9.825116 -1.263826 -0.578045 5.471079 -0.359513 -1.275102 -7.168274 1.206650 3.079847 -0.131476 5.140180 6.093414 23.991483 2.903363 2.089384 7.769075 -4.823984 -11.088615 1.395833 1.473308 -6.613146 39.621854 -18.105423 -19.369033 44.744000 
-0.007883 0.820593 0.022919 1.242278 -0.880553 7.884463 1.412827 -0.716558 -30.145998 -6.476735 2.425284 38.728506 4.505144 13.998055 -13.959444 -12.571977 2.984940 -29.524681 15.951126 -10.354067 32.896516 -5.385570 -3.870084 -7.370326 3.791742 -0.032561 19.165479 -0.661390 -0.605256 -9.559369 -1.744341 -0.582643 4.047608 -0.587537 -1.666283 -9.768011 -2.250787 -1.017040 0.533204 4.026557 4.835163 18.020498 6.448098 5.472432 10.770064 -1.464331 -6.266188 0.655393 2.893092 -5.427899 32.276654 -21.270321 -21.987558 47.164664 
-0.012401 0.805476 0.032801 0.802217 -0.813802 6.660095 1.322815 -0.795129 -30.948111 -5.878959 1.916688 43.584591 4.606574 13.995547 -15.481599 -12.025201 3.195250 -29.252934 15.946851 -10.678467 35.942808 -5.793494 -3.274268 -8.761492 4.407205 -0.209021 19.459958 -0.492590 -0.563086 -8.385381 -2.103414 -0.592386 2.042764 -1.489015 -1.505364 -11.531011 -4.932925 -5.681769 1.202628 4.791612 3.127295 9.199825 9.048744 8.106152 11.832362 0.903660 -1.067017 0.140909 0.138685 -3.761462 23.087459 -22.581932 -24.434250 44.977545 
-0.017301 0.799832 0.043615 0.380786 -0.600001 4.921076 1.400161 -0.701921 -29.588551 -5.266598 1.339781 46.022946 4.491037 12.507810 -16.238508 -10.469339 3.296761 -26.314967 14.760567 -9.586010 36.076384 -5.364128 -2.453384 -8.555037 4.304160 -0.203805 18.050380 -0.330654 -0.496312 -6.942754 -1.927661 -0.597720 0.478312 -2.694493 -1.197774 -13.255760 -5.336354 -10.597968 1.317292 6.668143 1.484241 -1.116622 9.823937 10.917755 6.481314 1.528956 4.555032 -0.333351 -5.239893 -2.496466 11.291067 -20.412706 -27.376953 33.482516 
-0.022885 0.808171 0.056859 0.245831 -0.375105 3.712930 2.005531 -0.291938 -26.449006 -4.775978 0.914131 44.897168 4.071920 10.529493 -14.193191 -8.235867 3.363837 -22.358638 13.073578 -7.857143 33.665024 -4.618377 -2.469702 -6.986318 3.284043 0.020738 15.663010 -0.375968 -0.451517 -6.667656 -1.574212 -0.517112 0.667785 -3.023009 -1.627646 -16.022585 -0.254102 -15.168162 -0.564325 10.747247 0.809226 -12.068280 6.650309 11.389815 -5.801589 -2.306250 10.892757 -1.433159 -11.079839 -2.291781 -2.695977 -15.456566 -27.948621 18.684907 
-0.029985 0.857812 0.077824 0.296288 -0.241660 3.118426 2.733811 0.249480 -17.773462 -4.099313 0.647197 33.815256 2.964461 8.521899 -6.923911 -4.403172 2.748695 -14.167359 8.875528 -4.122664 23.316588 -2.245751 -1.339870 -3.165309 1.888227 0.190649 10.753081 -0.567782 -0.361071 -6.575887 -1.133655 -0.228681 2.018709 -3.863314 -1.259246 -16.334079 7.841149 -14.328018 -3.484167 16.071885 1.666474 -21.555011 2.277700 10.057060 -20.773171 -9.997906 14.066523 -3.137644 -13.866219 -2.541905 -13.185652 -9.592277 -26.066878 2.490310 
-0.037770 0.948156 0.108867 0.705713 -0.192921 3.551120 4.413052 0.954752 -6.481280 -4.817886 1.510729 14.373899 -0.813723 2.622542 8.178202 -1.079623 0.769412 -3.492636 3.064655 -1.203500 3.806634 6.647616 0.609089 11.338160 -0.463700 0.240824 3.115813 -1.040422 -0.085430 -5.842047 0.012256 0.185523 2.527743 -5.034257 -0.142827 -14.254932 13.395707 -8.315142 -4.636353 17.810207 2.090049 -25.257613 -1.484115 6.350192 -32.242896 -14.784885 11.813318 -3.443706 -12.912980 -1.949754 -18.198231 -4.176896 -18.773863 -10.891374 
-0.044117 1.050056 0.141883 0.581269 -0.326687 4.857329 6.442447 1.392212 2.657552 -6.123980 2.193093 -7.962711 -9.321043 -0.591113 39.437907 0.492128 -1.222913 4.500259 -1.555108 -1.119380 -17.247941 17.983109 -10.310824 41.151497 -1.192637 -0.140703 -4.349172 -1.251702 0.135063 -4.599645 0.062763 0.414390 1.479455 -5.280822 1.469682 -8.481148 15.557945 -4.709216 -4.727235 16.787438 1.680789 -24.369577 -2.913923 4.796252 -38.061264 -16.088846 9.198517 -3.002921 -9.595450 -0.489324 -19.890764 -1.417574 -10.827424 -18.109406 
-0.047394 1.126632 0.164588 1.129995 -0.593184 6.920863 5.511311 1.179402 7.403114 -5.801218 2.167749 -24.843076 -11.491111 4.238344 60.557876 3.625071 -1.645925 7.370996 -8.264441 -1.344189 -31.238907 17.508160 -22.377897 59.301566 -2.522170 -0.423021 -9.455822 -1.023975 0.157695 -3.378080 0.036173 0.475049 0.269435 -4.179834 2.354596 -2.426549 17.211896 -2.115753 -4.737993 16.057407 1.435057 -23.441517 -3.204998 6.228898 -42.775330 -17.019962 8.335765 -2.906496 -7.936670 0.307390 -20.926024 -0.010714 -4.502151 -23.468510 
-0.047990 1.199130 0.176274 1.219111 -0.567776 7.158799 4.468594 1.018626 7.683819 -6.109612 2.208634 -26.757177 -10.577799 6.019008 63.450657 5.418144 -1.113102 6.500576 -10.168715 -1.296699 -32.870836 15.906833 -24.698003 61.859080 -2.783402 -0.489174 -10.419162 -1.270847 0.284451 -3.255329 0.418102 0.542264 -0.023319 -3.285859 2.176893 -0.716007 16.858113 -1.313381 -4.493665 17.145686 1.998312 -23.058543 -3.185709 7.924185 -45.343363 -16.481704 7.925821 -2.737199 -7.890083 0.398523 -21.593383 0.650887 0.260365 -27.664946 
-0.047000 1.269356 0.183071 0.565346 -0.546409 6.710954 4.460659 1.012026 6.098560 -6.910480 2.318651 -23.063880 -9.869884 5.935991 60.534790 6.676903 -0.198643 4.413123 -9.659751 -1.004419 -30.675702 16.568264 -23.627741 60.534005 -1.898059 -0.525526 -10.573762 -1.467990 0.490194 -2.193541 0.671144 0.614550 -0.494322 -2.594332 1.736437 -0.505675 15.300583 -1.732594 -4.147964 18.748138 2.929427 -21.149943 -3.011392 10.296285 -47.485483 -15.859639 7.804661 -2.632773 -8.362499 0.152731 -21.186755 0.819684 2.027835 -32.437800 
